<svg xmlns="http://www.w3.org/2000/svg" viewBox="0 0 48 72" width="48" height="72">
  <!-- indizio:placeholder -->
  <rect x="2" y="2" width="20" height="20" rx="4" fill="#4a4757" fill-opacity="0.55"/><g transform="translate(0 0)"><rect x="2" y="6" width="20" height="12" rx="2" fill="#4a4757"></rect><rect x="4" y="8" width="16" height="1.6" rx="0.8" fill="#5d5a6e"></rect><rect x="4" y="11.2" width="16" height="1.6" rx="0.8" fill="#5d5a6e"></rect><rect x="4" y="14.4" width="16" height="1.6" rx="0.8" fill="#5d5a6e"></rect></g><path d="M26 0L46 0L46 2L48 2L48 22L46 22L46 24L26 24L26 22L24 22L24 2L26 2Z" fill="#4a4757"/><path d="M29 0L43 0L43 5L48 5L48 19L43 19L43 24L29 24L29 19L24 19L24 5L29 5Z" fill="#5d5a6e" fill-opacity="0.8"/><rect x="2" y="26" width="44" height="44" rx="4" fill="#4a4757"/><rect x="5" y="29" width="38" height="38" rx="2" fill="#5d5a6e" fill-opacity="0.8"/>
</svg>
